<svg id="eewkZaUJCNo1" xmlns="http://www.w3.org/2000/svg" xmlns:xlink="http://www.w3.org/1999/xlink" viewBox="0 0 114 103" shape-rendering="geometricPrecision" text-rendering="geometricPrecision">
<style><![CDATA[
#eewkZaUJCNo2_tr {animation: eewkZaUJCNo2_tr__tr 1300ms linear infinite normal forwards}@keyframes eewkZaUJCNo2_tr__tr { 0% {transform: translate(57.000001px,90.534501px) rotate(0deg)} 7.692308% {transform: translate(57.000001px,90.534501px) rotate(2deg)} 15.384615% {transform: translate(57.000001px,90.534501px) rotate(-2deg)} 23.076923% {transform: translate(57.000001px,90.534501px) rotate(1deg)} 30.769231% {transform: translate(57.000001px,90.534501px) rotate(-1deg)} 38.461538% {transform: translate(57.000001px,90.534501px) rotate(0deg)} 100% {transform: translate(57.000001px,90.534501px) rotate(0deg)}} #eewkZaUJCNo3_to {animation: eewkZaUJCNo3_to__to 1300ms linear infinite normal forwards}@keyframes eewkZaUJCNo3_to__to { 0% {transform: translate(56.9709px,36.5px)} 92.307692% {transform: translate(56.970901px,-5.223026px)} 100% {transform: translate(56.970901px,-5.223026px)}} #eewkZaUJCNo6 {animation: eewkZaUJCNo6_c_o 1300ms linear infinite normal forwards}@keyframes eewkZaUJCNo6_c_o { 0% {opacity: 0} 61.538462% {opacity: 1} 100% {opacity: 1}} #eewkZaUJCNo9 {animation: eewkZaUJCNo9_c_o 1300ms linear infinite normal forwards}@keyframes eewkZaUJCNo9_c_o { 0% {opacity: 0} 38.461538% {opacity: 1} 100% {opacity: 1}}
]]></style>
<g id="eewkZaUJCNo2_tr" transform="translate(57.000001,90.534501) rotate(0)"><g transform="translate(-56.970901,-48.575)"><g id="eewkZaUJCNo3_to" transform="translate(56.9709,36.5)"><g transform="translate(-56.9709,-36.5)"><path d="M47.837,8.71715L56.9708,2l9.1339,6.71715c3.051,2.24395,5.5314,5.17405,7.2409,8.55355s2.6003,7.1137,2.6003,10.901v30.7533h-37.9501v-30.7533c0-3.7873.8908-7.5215,2.6003-10.901s4.1899-6.3096,7.2409-8.55355v0Z" fill="#cc7832" stroke="#000" stroke-width="4" stroke-linejoin="round"/><path d="M37.9959,24.425l-10.35,10.35v13.8l10.35-5.175v-18.975Zm37.95,0l10.35,10.35v13.8L75.9459,43.4v-18.975Z" fill="#cc3232" stroke="#000" stroke-width="4" stroke-linecap="round" stroke-linejoin="round"/><path id="eewkZaUJCNo6" d="M46.6208,62.375v5.175m10.35-5.175v8.625m10.35-8.625v5.175" opacity="0" fill="none" stroke="#cc3232" stroke-width="4" stroke-linecap="round" stroke-linejoin="round"/><circle r="9.50667" transform="translate(56.970901 26.993299)"/><circle r="4.97596" transform="translate(56.970901 26.9461)" fill="#cc3232"/></g></g><g id="eewkZaUJCNo9" transform="translate(-.029122-41.348007)" opacity="0"><path d="M2,89.2061c0,3.0833,1.22485,6.0404,3.40511,8.2206c2.18025,2.1803,5.13729,3.4053,8.22069,3.4053h29.0644c2.2679.002,4.4647-.791,6.2079-2.2417c1.7431-1.4507,2.9221-3.467,3.3315-5.6976.4095-2.2306.0234-4.5341-1.091-6.5094-1.1143-1.9752-2.8863-3.4969-5.0072-4.3.4794-1.3634.568-2.8338.2558-4.245s-1.0128-2.707-2.0226-3.741-2.2887-1.765-3.6921-2.1106c-1.4034-.3455-2.8754-.2917-4.2499.1553-.889-3.4101-3.0703-6.3404-6.0822-8.1703-3.0118-1.8298-6.6176-2.4156-10.0538-1.6332s-6.4329,2.8715-8.3557,5.825c-1.9227,2.9534-2.62036,6.5392-1.94529,9.9981-2.32365.7669-4.34624,2.2471-5.77997,4.23s-2.20555,4.3675-2.20564,6.8145v0Z" fill="#d9d9d9" stroke="#000" stroke-width="4" stroke-linecap="round" stroke-linejoin="round"/><path d="M83.5804,67.4346c-3.3803,0-6.622,1.3428-9.0122,3.733s-3.733,5.6319-3.733,9.0121c.0079,1,.1295,1.9922.3687,2.9648h-.0079c-2.2762.1664-4.3994,1.2084-5.9237,2.9071s-2.331,3.922-2.2509,6.2029c.0802,2.281,1.0411,4.4421,2.681,6.0295s3.8309,2.478,6.1132,2.484h29.4114c1.63-.002,3.239-.373,4.705-1.0858c1.465-.7127,2.751-1.7485,3.759-3.0294s1.712-2.7736,2.06-4.366c.348-1.5923.331-3.2428-.051-4.8275-.381-1.5847-1.117-3.0622-2.152-4.3216-1.034-1.2594-2.341-2.2679-3.822-2.9497-1.48-.6817-3.096-1.019-4.726-.9865-1.6292.0325-3.2302.434-4.6824,1.1743l.0079-.1961c0-3.3802-1.3428-6.6219-3.733-9.0121s-5.6319-3.733-9.0121-3.733v0Z" fill="#d9d9d9" stroke="#000" stroke-width="4" stroke-linecap="round" stroke-linejoin="round"/></g></g></g></svg>
