<svg
  id="e0MKQoX1rfL1"
  xmlns="http://www.w3.org/2000/svg"
  xmlns:xlink="http://www.w3.org/1999/xlink"
  viewBox="0 0 250 250"
  shape-rendering="geometricPrecision"
  text-rendering="geometricPrecision"
>
  <style>
    <![CDATA[
    :root {
        --primary-color: #0FFFFF;
        --base-color: #000;
        --background-color: #9b9c9d;
    }
    #e0MKQoX1rfL3_ts {
        animation: e0MKQoX1rfL3_ts__ts 2000ms linear infinite normal forwards
    }
    @keyframes e0MKQoX1rfL3_ts__ts {
        0% {
            transform: translate(108.5px,64px) scale(1,1)
        }
        15% {
            transform: translate(108.5px,64px) scale(1,1);
            animation-timing-function: cubic-bezier(0.42,0,0.58,1)
        }
        30% {
            transform: translate(108.5px,64px) scale(1.3,1.3);
            animation-timing-function: cubic-bezier(0.42,0,0.58,1)
        }
        45% {
            transform: translate(108.5px,64px) scale(1,1);
            animation-timing-function: cubic-bezier(0.42,0,0.58,1)
        }
        60% {
            transform: translate(108.5px,64px) scale(1,1);
            animation-timing-function: cubic-bezier(0.42,0,0.58,1)
        }
        75% {
            transform: translate(108.5px,64px) scale(1.3,1.3);
            animation-timing-function: cubic-bezier(0.42,0,0.58,1)
        }
        90% {
            transform: translate(108.5px,64px) scale(1,1)
        }
        100% {
            transform: translate(108.5px,64px) scale(1,1)
        }
    }
    #e0MKQoX1rfL4_tr {
        animation:
        e0MKQoX1rfL4_tr__tr 2000ms linear infinite normal forwards
    }
    @keyframes e0MKQoX1rfL4_tr__tr {
        0% {
            transform: translate(108.5px,65px) rotate(0deg)
        }
        15% {
            transform: translate(108.5px,65px) rotate(0deg);
            animation-timing-function: cubic-bezier(0.42,0,0.58,1)
        }
        40% {
            transform: translate(108.5px,65px) rotate(-13.592469deg);
            animation-timing-function: cubic-bezier(0.42,0,0.58,1)
        }
        45% {
            transform: translate(108.5px,65px) rotate(-13.592469deg);
            animation-timing-function: cubic-bezier(0.42,0,0.58,1)
        }
        70% {
            transform: translate(108.5px,65px) rotate(0deg)
        }
        100% {
            transform: translate(108.5px,65px) rotate(0deg)
        }
    }
    #e0MKQoX1rfL4_ts {
        animation: e0MKQoX1rfL4_ts__ts 2000ms linear infinite normal forwards
    }
    @keyframes e0MKQoX1rfL4_ts__ts {
        0% {
            transform: scale(1,1)
        }
        5% {
            transform: scale(1,1);
            animation-timing-function: cubic-bezier(0.42,0,0.58,1)
        }
        20% {
            transform: scale(0.855226,0.855226);
            animation-timing-function: cubic-bezier(0.42,0,0.58,1)
        }
        30% {
            transform: scale(1,1);
            animation-timing-function: cubic-bezier(0.42,0,0.58,1)
        }
        60% {
            transform: scale(1,1);
            animation-timing-function: cubic-bezier(0.42,0,0.58,1)
        }
        70% {
            transform: scale(0.855226,0.855226);
            animation-timing-function: cubic-bezier(0.42,0,0.58,1)
        }
        80% {
            transform: scale(1,1)
        }
        100% {
            transform: scale(1,1)
        }
    }
    #e0MKQoX1rfL5 {
        animation: e0MKQoX1rfL5__to 2000ms linear infinite normal forwards
    }
    @keyframes e0MKQoX1rfL5__to {
        0% {
          stroke-width: 7
        }
        5% {
            stroke-width: 7;
            animation-timing-function: cubic-bezier(0.42,0,0.58,1)
        }
        20% {
            stroke-width: 8;
            animation-timing-function: cubic-bezier(0.42,0,0.58,1)
        }
        30% {
            stroke-width: 7;
            animation-timing-function: cubic-bezier(0.42,0,0.58,1)
        }
        60% {
            stroke-width: 7;
            animation-timing-function: cubic-bezier(0.42,0,0.58,1)
        }
        70% {
            stroke-width: 8;
            animation-timing-function: cubic-bezier(0.42,0,0.58,1)
        }
        80% {
            stroke-width: 7;
        }
        100% {
            stroke-width: 7;
        }
    }
    #e0MKQoX1rfL6 {
        animation: e0MKQoX1rfL6__to 2000ms linear infinite normal forwards
    }
    @keyframes e0MKQoX1rfL6__to {
        0% {
          stroke-width: 6
        }
        5% {
            stroke-width: 6;
            animation-timing-function: cubic-bezier(0.42,0,0.58,1)
        }
        20% {
            stroke-width: 7;
            animation-timing-function: cubic-bezier(0.42,0,0.58,1)
        }
        30% {
            stroke-width: 6;
            animation-timing-function: cubic-bezier(0.42,0,0.58,1)
        }
        60% {
            stroke-width: 6;
            animation-timing-function: cubic-bezier(0.42,0,0.58,1)
        }
        70% {
            stroke-width: 7;
            animation-timing-function: cubic-bezier(0.42,0,0.58,1)
        }
        80% {
            stroke-width: 6;
        }
        100% {
            stroke-width: 6;
        }
    }
    #e0MKQoX1rfL3 {
        animation: e0MKQoX1rfL3__to 2000ms linear infinite normal forwards
    }
    @keyframes e0MKQoX1rfL3__to {
        0% {
            stroke-width: 6
        }
        15% {
            stroke-width: 6;
            animation-timing-function: cubic-bezier(0.42,0,0.58,1)
        }
        30% {
            stroke-width: 5;
            animation-timing-function: cubic-bezier(0.42,0,0.58,1)
        }
        45% {
            stroke-width: 6;
            animation-timing-function: cubic-bezier(0.42,0,0.58,1)
        }
        60% {
            stroke-width: 6;
            animation-timing-function: cubic-bezier(0.42,0,0.58,1)
        }
        75% {
            stroke-width: 5;
            animation-timing-function: cubic-bezier(0.42,0,0.58,1)
        }
        90% {
            stroke-width: 6
        }
        100% {
            stroke-width: 6
        }
    }
    ]]>
  </style>
  <g id="e0MKQoX1rfL3_ts" transform="translate(108.5,64) scale(1,1)">
    <path
      id="e0MKQoX1rfL3"
      d="M72,72c0,20.4345,16.3416,37,36.5,37c4.521,0,8.85-.833,12.846-2.357C135.167,101.375,145,87.8514,145,72c0-20.4345-16.342-37-36.5-37C88.3416,35,72,51.5655,72,72Z"
      transform="translate(-108.5,-72)"
      fill="none"
      stroke="var(--primary-color)"
    />
  </g>
  <g id="e0MKQoX1rfL4_tr" transform="translate(108.5,65) rotate(0)">
    <g id="e0MKQoX1rfL4_ts" transform="scale(1,1)">
      <g transform="translate(-108.5,-73)">
        <path
          d="M94.3563,234.845061c-.9458-10.813-2.2168-12.149061-12.6761-24.419061l-.035-.041c-10.4915-12.308-30.7404-62.073-32.4838-64.564s10.9944-9.519,20.9833-5.851c8.6951,4.121,11.4972,10.835,24.2116,24.413l-.1615-90.3897c0-7.371,5.9622-13.3464,13.3162-13.3464c7.355,0,13.317,5.9754,13.317,13.3464v45.1867c.004-7.367,5.964-13.338,13.316-13.338c7.354,0,13.316,5.975,13.316,13.346v10.075c.007-7.365,5.966-13.333,13.317-13.333c7.354,0,13.316,5.975,13.316,13.346v10.877c.01-7.362,5.968-13.328,13.316-13.328c7.355,0,13.317,5.975,13.317,13.346v53.437c0,17.15-12.913,28.122061-11.501,41.237061h-94.8687Z"
          fill="var(--background-color)"
        />
        <path
          id="e0MKQoX1rfL6"
          d="M120.828,119.18v-45.1867c0-7.371-5.962-13.3464-13.317-13.3464-7.354,0-13.3162,5.9754-13.3162,13.3464l.1615,90.3897c-12.7144-13.578-15.5165-20.292-24.2116-24.413-9.9889-3.668-22.7267,3.36-20.9833,5.851s21.9923,52.256,32.4838,64.564l.035.041c10.4593,12.27,11.7303,13.606061,12.6761,24.419061h94.8687c-1.412-13.115,11.501-24.087061,11.501-41.237061v-53.437c0-7.371-5.962-13.346-13.317-13.346-7.348,0-13.306,5.966-13.316,13.328M120.828,119.18c.004-7.367,5.964-13.338,13.316-13.338c7.354,0,13.316,5.975,13.316,13.346v10.075M120.828,119.18v26.409m26.632-16.326c.007-7.365,5.966-13.333,13.317-13.333c7.354,0,13.316,5.975,13.316,13.346v10.877m-26.633-10.89v16.326m26.633,0v-5.436m0,.018c0-.006,0-.012,0-.018"
          fill="none"
          stroke="var(--base-color)"
          stroke-linecap="round"
          stroke-linejoin="round"
        />
        <path
          id="e0MKQoX1rfL5"
          d="M86.1244,234.97l112.1796-.003"
          transform="translate(.007826-.121939)"
          fill="none"
          stroke="var(--primary-color)"
          stroke-linecap="round"
        />
      </g>
    </g>
  </g>
</svg>
