<svg
  id="eWw3DRHaiyz1"
  xmlns="http://www.w3.org/2000/svg"
  xmlns:xlink="http://www.w3.org/1999/xlink"
  viewBox="0 0 250 250"
  shape-rendering="geometricPrecision"
  text-rendering="geometricPrecision"
>
  <style>
    <![CDATA[
    :root {
        --primary-color: #0FFFFF;
        --base-color: #000;
    }
    #eWw3DRHaiyz8_tr {
        animation: eWw3DRHaiyz8_tr__tr 1500ms linear infinite normal forwards
    }
    @keyframes eWw3DRHaiyz8_tr__tr {
        0% {
            transform: translate(33.5px,143.331551px) rotate(0deg)
        }
        13.333333% {
            transform: translate(33.5px,143.331551px) rotate(-20.940575deg)
        }
        26.666667% {
            transform: translate(33.5px,143.331551px) rotate(0.016742deg)
        }
        33.333333% {
            transform: translate(33.5px,143.331551px) rotate(8.963815deg)
        }
        46.666667% {
            transform: translate(33.5px,143.331551px) rotate(0deg)
        }
        100% {
            transform: translate(33.5px,143.331551px) rotate(0deg)
        }
    }
    #eWw3DRHaiyz8_bg_1 {
        stroke-dasharray: 29.05 29.05;
        animation: eWw3DRHaiyz8_bg_1__da 1500ms linear infinite normal forwards
    }
    @keyframes eWw3DRHaiyz8_bg_1__da {
        0% {
            stroke-dashoffset: 29.05
        }
        33.333333% {
            stroke-dashoffset: 29.05
        }
        60% {
            stroke-dashoffset: 0
        }
        86.66666666666667% {
            stroke-dashoffset: -29.05
        }
        100% {
            stroke-dashoffset: -29.05
        }
    }
    #eWw3DRHaiyz8_bg_2 {
        stroke-dasharray: 15.4 15.4;
        animation: eWw3DRHaiyz8_bg_2__da 1500ms linear infinite normal forwards
    }
    @keyframes eWw3DRHaiyz8_bg_2__da {
        0% {
            stroke-dashoffset: -15.4
        }
        33.333333% {
            stroke-dashoffset: -15.4
        }
        60% {
            stroke-dashoffset: 0
        }
        86.66666666666667% {
            stroke-dashoffset: 15.4
        }
        100% {
            stroke-dashoffset: 15.4
        }
    }
    #eWw3DRHaiyz8_bg_3 {
        stroke-dasharray: 36.94 36.94;
        animation: eWw3DRHaiyz8_bg_3__da 1500ms linear infinite normal forwards
    }
    @keyframes eWw3DRHaiyz8_bg_3__da {
        0% {
            stroke-dashoffset: 36.94
        }
        33.333333% {
            stroke-dashoffset: 36.94
        }
        60% {
            stroke-dashoffset: 0
        }
        86.66666666666667% {
            stroke-dashoffset: -36.94
        }
        100% {
            stroke-dashoffset: -36.94
        }
    }
    #eWw3DRHaiyz8_bg_4 {
        stroke-dasharray: 38.14 38.14;
        animation: eWw3DRHaiyz8_bg_4__da 1500ms linear infinite normal forwards
    }
    @keyframes eWw3DRHaiyz8_bg_4__da {
        0% {
            stroke-dashoffset: -38.14
        }
        33.333333% {
            stroke-dashoffset: -38.14
        }
        60% {
            stroke-dashoffset: 0
        }
        86.66666666666667% {
            stroke-dashoffset: 38.14
        }
        100% {
            stroke-dashoffset: 38.14
        }
    }
    #eWw3DRHaiyz8_bg_5 {
        stroke-dasharray: 28.13 28.13;
        animation: eWw3DRHaiyz8_bg_5__da 1500ms linear infinite normal forwards
    }
    @keyframes eWw3DRHaiyz8_bg_5__da {
        0% {
            stroke-dashoffset: -28.13
        }
        33.333333% {
            stroke-dashoffset: -28.13
        }
        60% {
            stroke-dashoffset: 0
        }
        86.66666666666667% {
            stroke-dashoffset: 28.13
        }
        100% {
            stroke-dashoffset: 28.13
        }
    }
    #eWw3DRHaiyz8_bg_6 {
        stroke-dasharray: 36.7 36.7;
        animation: eWw3DRHaiyz8_bg_6__da 1500ms linear infinite normal forwards
    }
    @keyframes eWw3DRHaiyz8_bg_6__da {
        0% {
            stroke-dashoffset: -36.7
        }
        33.333333% {
            stroke-dashoffset: -36.7
        }
        60% {
            stroke-dashoffset: 0
        }
        86.66666666666667% {
            stroke-dashoffset: 36.7
        }
        100% {
            stroke-dashoffset: 36.7
        }
    }
    ]]>
  </style>
  <path
    id="eWw3DRHaiyz8_bg_1"
    d="M195.5,200.5c5.041,7.694,9.172,10.576,22,18.5"
    fill="none"
    stroke="var(--primary-color)"
    stroke-width="6"
    stroke-linecap="round"
  />
  <path
    id="eWw3DRHaiyz8_bg_2"
    d="M23,118c2.2768,4.11,6.3149,8.801,10.5,11"
    fill="none"
    stroke="var(--primary-color)"
    stroke-width="6"
    stroke-linecap="round"
  />
  <path
    id="eWw3DRHaiyz8_bg_3"
    d="M112.5,203c0,0-11.8,3.4-6.4,12.8s-3.6,18.2-3.6,18.2"
    fill="none"
    stroke="var(--primary-color)"
    stroke-width="6"
    stroke-linecap="round"
  />
  <path
    id="eWw3DRHaiyz8_bg_4"
    d="M207.5,46c0,0-13.75,1.4237-13.125,11.3898C195,67.3559,182.5,70,182.5,70"
    fill="none"
    stroke="var(--primary-color)"
    stroke-width="6"
    stroke-linecap="round"
  />
  <path
    id="eWw3DRHaiyz8_bg_5"
    d="M161.5,15c-1.893,10.9465-2.297,17.0793-1.812,28"
    fill="none"
    stroke="var(--primary-color)"
    stroke-width="6"
    stroke-linecap="round"
  />
  <path
    id="eWw3DRHaiyz8_bg_6"
    d="M71.5469,45c-.8608,11.945,10.3627,14.2598,13.9553,15.7338s6.8094,6.9294,5.8147,11.2662"
    fill="none"
    stroke="var(--primary-color)"
    stroke-width="6"
    stroke-linecap="round"
  />
  <g id="eWw3DRHaiyz8_tr" transform="translate(33.5,143.331551) rotate(0)">
    <g transform="translate(-33.5,-143.331551)">
      <path
        fill="var(--base-color)"
        d="M94.5265,103.213l.0538-2.999c-.0179-.001-.0359-.001-.0538-.001v3ZM144.787,82.6339l2.39,1.8135.055-.0726.051-.0758-2.496-1.6651ZM161.211,199.777l-.045,2.999.045-2.999ZM154.855,43.4731l2.994.1745-2.994-.1745Zm.438-.3725l-.314,2.9836.314-2.9836Zm11.261,57.1124c-1.657,0-3,1.343-3,3s1.343,3,3,3v-6Zm24.536,24.141c-1.657,0-3,1.343-3,3s1.343,3,3,3v-6Zm0,24.141c-1.657,0-3,1.343-3,3s1.343,3,3,3v-6Zm0,24.141c-1.657,0-3,1.343-3,3s1.343,3,3,3v-6ZM179.02,65.94h3v-.1321l-.012-.1317-2.988.2638Zm-.709-4.2412l2.914-.7143-.02-.0805-.024-.0793-2.87.8741ZM179,199.778l-.121-2.998.121,2.998ZM33.9763,106.213h60.5502v-6h-60.5502v6Zm57.5502-3v84.691h6v-84.691h-6Zm3,81.691h-60.5502v6h60.5502v-6Zm-57.9459,2.604v-83.899h-6v83.899h6Zm57.8921-81.295c14.1883.254,23.7743-.156,31.6323-3.27c8.011-3.1739,13.864-8.9982,21.072-18.4956l-4.78-3.6271c-7.038,9.2743-12.067,13.9951-18.502,16.5451-6.588,2.6107-15.009,3.1046-29.3147,2.8486l-.1076,5.999ZM147.283,84.299c9.771-14.6452,9.645-24.8254,10.566-40.6514l-5.989-.349c-.932,15.9845-.82,24.5595-9.568,37.6702l4.991,3.3302ZM178.879,196.78c-.261.011-4.897.187-17.623-.003l-.09,5.999c12.794.191,17.548.016,17.955-.001l-.242-5.995Zm-84.3525-8.876c0,3,0,3,.0001,3c0,0,0,0,.0001,0s.0002,0,.0003,0s.0002,0,.0003,0s.0003,0,.0005,0s.0003,0,.0005,0s.0004,0,.0007,0s.0004,0,.0007,0s.0006,0,.0009,0s.0006,0,.0009,0s.0007,0,.0011,0c.0003,0,.0007,0,.0011,0s.0008,0,.0013,0c.0004,0,.0008,0,.0013,0s.001,0,.0015,0s.001,0,.0015,0c.0006,0,.0011,0,.0017,0s.0011,0,.0017,0s.0013,0,.0019,0s.0013,0,.0019,0c.0007,0,.0014,0,.0021,0s.0014,0,.0022,0s.0015,0,.0022,0c.0008,0,.0016,0,.0024,0s.0016,0,.0025,0c.0008,0,.0017,0,.0025,0c.0009,0,.0018,0,.0027,0s.0018,0,.0028,0c.0009,0,.0019,0,.0028,0s.002,0,.003,0s.002,0,.0031,0s.0021,0,.0032,0c.001,0,.0021,0,.0032,0c.0012,0,.0023,0,.0034,0c.0012,0,.0023,0,.0035,0s.0024,0,.0036,0s.0024,0,.0037,0c.0012,0,.0025,0,.0038,0s.0026,0,.0039,0s.0026,0,.004,0c.0013,0,.0027,0,.0041,0s.0028,0,.0042,0s.0028,0,.0043,0s.0029,0,.0044,0s.003,0,.0045,0s.0031,0,.0046,0s.0032,0,.0047,0s.0032,0,.0049,0s.0032,0,.0049,0s.0033,0,.005,0s.0034,0,.0052,0c.0017,0,.0034,0,.0052,0s.0035,0,.0053,0s.0036,0,.0055,0c.0018,0,.0037,0,.0055,0s.0038,0,.0057,0s.0038,0,.0057,0c.002,0,.0039,0,.0059,0s.004,0,.006,0s.004,0,.006,0c.0021,0,.0041,0,.0062,0s.0042,0,.0063,0s.0042,0,.0064,0c.0021,0,.0043,0,.0065,0c.0021,0,.0043,0,.0065,0c.0023,0,.0045,0,.0067,0c.0023,0,.0046,0,.0068,0c.0023,0,.0046,0,.007,0s.0046,0,.007,0c.0023,0,.0047,0,.0071,0s.0048,0,.0072,0s.0049,0,.0073,0c.0025,0,.005,0,.0075,0s.005,0,.0075,0s.0051,0,.0076,0c.0026,0,.0052,0,.0078,0s.0052,0,.0079,0c.0026,0,.0052,0,.0079,0s.0054,0,.0081,0s.0054,0,.0082,0s.0055,0,.0082,0c.0028,0,.0056,0,.0084,0s.0057,0,.0085,0s.0057,0,.0086,0s.0058,0,.0087,0s.0059,0,.0088,0s.0059,0,.0089,0s.006,0,.0091,0c.003,0,.006,0,.0091,0s.0061,0,.0092,0s.0062,0,.0094,0c.0031,0,.0062,0,.0094,0s.0064,0,.0096,0s.0064,0,.0096,0c.0033,0,.0065,0,.0098,0s.0066,0,.0099,0s.0066,0,.01,0c.0033,0,.0067,0,.0101,0c.0033,0,.0068,0,.0102,0s.0068,0,.0103,0c.0034,0,.0069,0,.0104,0s.007,0,.0105,0s.0071,0,.0106,0s.0072,0,.0108,0s.0072,0,.0108,0c.0037,0,.0073,0,.011,0s.0073,0,.0111,0c.0037,0,.0074,0,.0111,0s.0075,0,.0113,0s.0076,0,.0114,0s.0076,0,.0115,0c.0038,0,.0077,0,.0116,0s.0078,0,.0117,0s.0079,0,.0118,0s.008,0,.012,0c.0039,0,.008,0,.012,0s.0081,0,.0121,0c.0041,0,.0082,0,.0123,0s.0082,0,.0124,0c.0041,0,.0083,0,.0124,0s.0084,0,.0126,0s.0085,0,.0127,0s.0085,0,.0128,0s.0086,0,.0129,0s.0087,0,.0131,0c.0043,0,.0087,0,.0131,0s.0088,0,.0132,0s.0089,0,.0134,0s.0089,0,.0134,0s.0091,0,.0136,0c.0046,0,.0091,0,.0137,0s.0092,0,.0138,0s.0092,0,.0139,0s.0093,0,.014,0s.0094,0,.0141,0s.0095,0,.0142,0s.0096,0,.0144,0s.0096,0,.0144,0c.0049,0,.0097,0,.0146,0s.0098,0,.0147,0s.0098,0,.0148,0s.0099,0,.0149,0c.0049,0,.0099,0,.015,0c.005,0,.01,0,.0151,0s.0101,0,.0152,0s.0102,0,.0154,0c.0051,0,.0102,0,.0154,0s.0104,0,.0156,0s.0104,0,.0156,0c.0053,0,.0106,0,.0158,0c.0053,0,.0106,0,.0159,0s.0107,0,.016,0s.0108,0,.0162,0s.0108,0,.0162,0s.0109,0,.0163,0s.011,0,.0165,0s.011,0,.0166,0s.0111,0,.0166,0s.0112,0,.0168,0s.0113,0,.0169,0c.0057,0,.0114,0,.0171,0c.0056,0,.0114,0,.0171,0s.0115,0,.0172,0s.0116,0,.0174,0s.0116,0,.0175,0s.0117,0,.0175,0c.0059,0,.0118,0,.0177,0s.0119,0,.0178,0s.012,0,.0179,0s.0121,0,.0181,0s.0121,0,.0181,0c.0061,0,.0122,0,.0183,0s.0122,0,.0184,0s.0123,0,.0184,0c.0062,0,.0124,0,.0186,0s.0125,0,.0188,0s.0125,0,.0188,0s.0126,0,.0189,0c.0064,0,.0127,0,.0191,0s.0127,0,.0191,0c.0065,0,.0129,0,.0193,0s.0129,0,.0194,0s.013,0,.0195,0s.0131,0,.0197,0c.0065,0,.0131,0,.0197,0s.0132,0,.0198,0s.0133,0,.02,0s.0134,0,.0201,0s.0134,0,.0202,0c.0067,0,.0135,0,.0203,0s.0136,0,.0204,0s.0137,0,.0206,0s.0137,0,.0206,0s.0139,0,.0208,0s.0139,0,.0209,0s.014,0,.021,0s.014,0,.0211,0s.0141,0,.0212,0s.0142,0,.0214,0c.0071,0,.0143,0,.0214,0c.0072,0,.0144,0,.0216,0s.0145,0,.0217,0c.0073,0,.0145,0,.0218,0s.0146,0,.0219,0c.0074,0,.0147,0,.0221,0c.0073,0,.0147,0,.0221,0s.0149,0,.0223,0c.0075,0,.0149,0,.0224,0s.015,0,.0225,0s.0151,0,.0226,0s.0152,0,.0228,0s.0152,0,.0228,0c.0077,0,.0153,0,.023,0s.0154,0,.0231,0s.0154,0,.0232,0s.0155,0,.0233,0s.0156,0,.0234,0c.0079,0,.0157,0,.0236,0s.0158,0,.0237,0s.0158,0,.0238,0s.0159,0,.0239,0s.016,0,.024,0s.0161,0,.0241,0c.0081,0,.0162,0,.0243,0s.0162,0,.0244,0c.0081,0,.0163,0,.0244,0c.0082,0,.0164,0,.0247,0c.0082,0,.0164,0,.0247,0s.0165,0,.0248,0s.0167,0,.025,0s.0167,0,.0251,0s.0168,0,.0252,0s.0168,0,.0253,0s.0169,0,.0254,0s.017,0,.0256,0c.0085,0,.0171,0,.0257,0c.0085,0,.0171,0,.0258,0s.0172,0,.0259,0c.0086,0,.0173,0,.026,0s.0174,0,.0261,0c.0088,0,.0175,0,.0263,0s.0176,0,.0264,0s.0176,0,.0265,0s.0177,0,.0266,0s.0178,0,.0268,0c.0089,0,.0178,0,.0268,0s.018,0,.027,0s.018,0,.0271,0c.009,0,.0181,0,.0272,0s.0182,0,.0273,0c.0092,0,.0183,0,.0275,0s.0184,0,.0276,0s.0184,0,.0277,0c.0092,0,.0185,0,.0278,0s.0186,0,.0279,0s.0187,0,.0281,0s.0188,0,.0282,0s.0188,0,.0283,0c.0094,0,.0189,0,.0284,0s.019,0,.0285,0s.0191,0,.0287,0s.0191,0,.0287,0s.0193,0,.0289,0s.0194,0,.0291,0s.0194,0,.0291,0s.0195,0,.0293,0s.0195,0,.0293,0c.0099,0,.0197,0,.0295,0c.0099,0,.0198,0,.0297,0s.0198,0,.0297,0s.0199,0,.0299,0s.0199,0,.03,0s.02,0,.0301,0c.01,0,.0201,0,.0302,0s.0202,0,.0303,0c.0102,0,.0203,0,.0305,0s.0204,0,.0306,0s.0205,0,.0307,0c.0103,0,.0206,0,.0309,0s.0206,0,.0309,0s.0207,0,.0311,0s.0208,0,.0312,0s.0209,0,.0313,0s.021,0,.0315,0s.021,0,.0315,0s.0212,0,.0317,0s.0212,0,.0319,0s.0212,0,.0319,0s.0213,0,.032,0c.0108,0,.0215,0,.0322,0c.0108,0,.0215,0,.0323,0s.0216,0,.0325,0s.0216,0,.0325,0s.0218,0,.0327,0s.0218,0,.0328,0s.0219,0,.0329,0s.022,0,.033,0s.0221,0,.0332,0s.0222,0,.0333,0s.0223,0,.0334,0c.0112,0,.0223,0,.0335,0s.0225,0,.0337,0s.0225,0,.0338,0s.0226,0,.0339,0s.0227,0,.034,0s.0228,0,.0342,0s.0228,0,.0343,0c.0114,0,.0229,0,.0344,0s.023,0,.0345,0s.0231,0,.0346,0c.0116,0,.0232,0,.0348,0s.0233,0,.0349,0c.0117,0,.0233,0,.035,0s.0235,0,.0352,0s.0235,0,.0353,0c.0117,0,.0235,0,.0354,0c.0118,0,.0236,0,.0355,0c.0118,0,.0237,0,.0356,0s.0239,0,.0359,0s.024,0,.036,0s.024,0,.036,0s.024,0,.036,0s.024,0,.036,0s.024,0,.037,0c.012,0,.024,0,.036,0s.025,0,.037,0s.024,0,.037,0c.012,0,.024,0,.036,0c.013,0,.025,0,.038,0c.012,0,.024,0,.037,0c.012,0,.025,0,.037,0s.025,0,.037,0c.013,0,.025,0,.038,0c.012,0,.025,0,.038,0c.012,0,.025,0,.037,0c.013,0,.026,0,.038,0c.013,0,.026,0,.038,0c.013,0,.026,0,.038,0c.013,0,.026,0,.039,0s.025,0,.038,0s.026,0,.039,0s.025,0,.038,0s.026,0,.039,0s.026,0,.039,0s.026,0,.039,0s.026,0,.039,0s.026,0,.04,0c.013,0,.026,0,.039,0s.026,0,.04,0c.013,0,.026,0,.039,0c.014,0,.027,0,.04,0s.027,0,.04,0s.027,0,.04,0s.027,0,.04,0c.014,0,.027,0,.041,0c.013,0,.027,0,.04,0c.014,0,.027,0,.041,0c.013,0,.027,0,.04,0c.014,0,.028,0,.041,0c.014,0,.027,0,.041,0s.028,0,.041,0c.014,0,.028,0,.041,0c.014,0,.028,0,.042,0s.027,0,.041,0s.028,0,.042,0s.028,0,.042,0s.028,0,.042,0c.013,0,.027,0,.042,0c.014,0,.028,0,.042,0s.028,0,.042,0s.028,0,.042,0s.029,0,.043,0s.028,0,.042,0c.015,0,.029,0,.043,0s.029,0,.043,0s.029,0,.043,0s.029,0,.043,0c.015,0,.029,0,.044,0c.014,0,.028,0,.043,0c.014,0,.029,0,.044,0c.014,0,.029,0,.043,0c.015,0,.029,0,.044,0s.029,0,.044,0s.029,0,.044,0s.029,0,.044,0s.03,0,.045,0c.014,0,.029,0,.044,0s.03,0,.045,0c.014,0,.029,0,.044,0s.03,0,.045,0s.03,0,.045,0s.03,0,.045,0s.03,0,.045,0c.016,0,.031,0,.046,0s.03,0,.045,0c.016,0,.031,0,.046,0s.03,0,.046,0c.015,0,.03,0,.046,0c.015,0,.03,0,.046,0c.015,0,.03,0,.046,0c.015,0,.031,0,.046,0c.016,0,.031,0,.047,0c.015,0,.031,0,.046,0c.016,0,.031,0,.047,0c.015,0,.031,0,.047,0c.015,0,.031,0,.047,0c.015,0,.031,0,.047,0c.015,0,.031,0,.047,0s.031,0,.047,0s.032,0,.048,0c.015,0,.031,0,.047,0s.032,0,.048,0s.032,0,.048,0s.032,0,.048,0s.032,0,.048,0s.032,0,.048,0s.033,0,.049,0s.032,0,.048,0s.033,0,.049,0s.032,0,.049,0c.016,0,.032,0,.049,0c.016,0,.032,0,.049,0c.016,0,.032,0,.049,0c.016,0,.033,0,.049,0c.017,0,.033,0,.05,0c.016,0,.033,0,.049,0c.017,0,.033,0,.05,0s.033,0,.05,0s.033,0,.05,0s.033,0,.05,0s.034,0,.05,0c.017,0,.034,0,.051,0s.033,0,.05,0s.034,0,.051,0s.034,0,.051,0s.034,0,.051,0s.034,0,.051,0s.034,0,.051,0s.034,0,.051,0s.035,0,.052,0s.034,0,.051,0c.018,0,.035,0,.052,0s.035,0,.052,0s.035,0,.052,0s.035,0,.052,0c.018,0,.035,0,.053,0c.017,0,.034,0,.052,0c.017,0,.035,0,.053,0c.017,0,.035,0,.052,0c.018,0,.035,0,.053,0s.035,0,.053,0s.035,0,.053,0s.036,0,.053,0c.018,0,.036,0,.054,0s.035,0,.053,0s.036,0,.054,0s.036,0,.054,0s.036,0,.054,0s.036,0,.054,0s.036,0,.054,0s.036,0,.054,0s.036,0,.055,0c.018,0,.036,0,.054,0s.037,0,.055,0s.036,0,.055,0c.018,0,.036,0,.055,0c.018,0,.037,0,.055,0s.037,0,.055,0c.019,0,.037,0,.056,0c.018,0,.037,0,.055,0c.019,0,.037,0,.056,0c.018,0,.037,0,.056,0c.018,0,.037,0,.056,0c.018,0,.037,0,.056,0s.037,0,.056,0s.038,0,.056,0c.019,0,.038,0,.057,0s.038,0,.057,0c.018,0,.037,0,.056,0s.038,0,.057,0s.038,0,.057,0s.038,0,.058,0c.019,0,.038,0,.057,0s.038,0,.057,0c.02,0,.039,0,.058,0s.038,0,.058,0c.019,0,.038,0,.058,0c.019,0,.038,0,.058,0c.019,0,.038,0,.058,0c.019,0,.039,0,.058,0c.02,0,.039,0,.059,0c.019,0,.039,0,.058,0c.02,0,.039,0,.059,0s.039,0,.059,0c.019,0,.039,0,.059,0s.039,0,.059,0s.039,0,.059,0s.04,0,.06,0s.039,0,.059,0s.04,0,.06,0s.04,0,.06,0s.04,0,.06,0s.04,0,.06,0s.04,0,.06,0s.04,0,.061,0c.02,0,.04,0,.06,0s.041,0,.061,0s.04,0,.061,0c.02,0,.04,0,.061,0c.02,0,.04,0,.061,0c.02,0,.04,0,.061,0c.02,0,.041,0,.061,0v-6c-.02,0-.041,0-.061,0-.021,0-.041,0-.061,0-.021,0-.041,0-.061,0-.021,0-.041,0-.061,0-.021,0-.041,0-.061,0s-.041,0-.061,0-.04,0-.06,0c-.021,0-.041,0-.061,0s-.04,0-.06,0-.04,0-.06,0-.04,0-.06,0-.04,0-.06,0-.04,0-.06,0-.039,0-.059,0-.04,0-.06,0-.039,0-.059,0-.039,0-.059,0-.04,0-.059,0c-.02,0-.039,0-.059,0s-.039,0-.059,0c-.019,0-.039,0-.058,0-.02,0-.039,0-.059,0-.019,0-.039,0-.058,0-.02,0-.039,0-.058,0-.02,0-.039,0-.058,0-.02,0-.039,0-.058,0-.02,0-.039,0-.058,0s-.038,0-.058,0c-.019,0-.038,0-.057,0s-.038,0-.057,0c-.02,0-.039,0-.058,0s-.038,0-.057,0-.038,0-.057,0-.038,0-.056,0c-.019,0-.038,0-.057,0s-.038,0-.057,0c-.018,0-.037,0-.056,0s-.037,0-.056,0-.038,0-.056,0c-.019,0-.038,0-.056,0-.019,0-.038,0-.056,0-.019,0-.037,0-.056,0-.018,0-.037,0-.055,0-.019,0-.037,0-.056,0-.018,0-.037,0-.055,0s-.037,0-.055,0c-.019,0-.037,0-.055,0-.019,0-.037,0-.055,0s-.037,0-.055,0-.036,0-.054,0c-.019,0-.037,0-.055,0s-.036,0-.054,0-.036,0-.054,0-.036,0-.054,0-.036,0-.054,0-.036,0-.054,0-.036,0-.054,0-.035,0-.053,0-.036,0-.054,0c-.017,0-.035,0-.053,0s-.035,0-.053,0-.035,0-.053,0-.035,0-.053,0c-.017,0-.035,0-.052,0-.018,0-.036,0-.053,0-.018,0-.035,0-.052,0-.018,0-.035,0-.053,0-.017,0-.035,0-.052,0s-.035,0-.052,0-.035,0-.052,0-.034,0-.052,0c-.017,0-.034,0-.051,0s-.035,0-.052,0-.034,0-.051,0-.034,0-.051,0-.034,0-.051,0-.034,0-.051,0-.034,0-.051,0-.034,0-.051,0-.033,0-.05,0-.034,0-.051,0c-.016,0-.033,0-.05,0s-.033,0-.05,0-.033,0-.05,0-.033,0-.05,0-.033,0-.05,0c-.016,0-.033,0-.049,0-.017,0-.033,0-.05,0-.016,0-.033,0-.049,0-.017,0-.033,0-.049,0-.017,0-.033,0-.049,0-.017,0-.033,0-.049,0-.017,0-.033,0-.049,0s-.033,0-.049,0-.032,0-.048,0-.033,0-.049,0-.032,0-.048,0-.032,0-.048,0-.032,0-.048,0-.032,0-.048,0-.032,0-.048,0-.032,0-.047,0c-.016,0-.032,0-.048,0s-.031,0-.047,0-.032,0-.047,0c-.016,0-.032,0-.047,0-.016,0-.032,0-.047,0-.016,0-.032,0-.047,0-.016,0-.031,0-.047,0-.015,0-.031,0-.046,0-.016,0-.031,0-.047,0-.015,0-.031,0-.046,0-.016,0-.031,0-.046,0-.016,0-.031,0-.046,0-.016,0-.031,0-.046,0-.016,0-.031,0-.046,0s-.03,0-.046,0c-.015,0-.03,0-.045,0s-.03,0-.046,0c-.015,0-.03,0-.045,0s-.03,0-.045,0-.03,0-.045,0-.03,0-.045,0-.03,0-.044,0c-.015,0-.03,0-.045,0s-.03,0-.044,0c-.015,0-.03,0-.045,0s-.029,0-.044,0-.029,0-.044,0-.029,0-.044,0-.029,0-.044,0c-.014,0-.029,0-.043,0-.015,0-.03,0-.044,0-.015,0-.029,0-.043,0-.015,0-.029,0-.044,0-.014,0-.029,0-.043,0s-.029,0-.043,0-.029,0-.043,0-.028,0-.043,0c-.014,0-.028,0-.042,0s-.029,0-.043,0-.028,0-.042,0-.028,0-.042,0-.028,0-.042,0c-.015,0-.029,0-.042,0-.014,0-.028,0-.042,0s-.028,0-.042,0-.028,0-.042,0-.027,0-.041,0-.028,0-.042,0c-.013,0-.027,0-.041,0-.013,0-.027,0-.041,0s-.027,0-.041,0c-.013,0-.027,0-.041,0-.013,0-.027,0-.04,0-.014,0-.027,0-.041,0-.013,0-.027,0-.04,0-.014,0-.027,0-.041,0-.013,0-.027,0-.04,0s-.027,0-.04,0-.027,0-.04,0-.026,0-.04,0c-.013,0-.026,0-.039,0-.014,0-.027,0-.04,0s-.026,0-.039,0c-.014,0-.027,0-.04,0s-.026,0-.039,0-.026,0-.039,0-.026,0-.039,0-.026,0-.039,0-.025,0-.038,0-.026,0-.039,0-.025,0-.038,0-.026,0-.039,0c-.012,0-.025,0-.038,0-.012,0-.025,0-.038,0-.012,0-.025,0-.038,0-.012,0-.025,0-.037,0-.013,0-.026,0-.038,0-.013,0-.025,0-.038,0-.012,0-.025,0-.037,0s-.025,0-.037,0c-.013,0-.025,0-.037,0-.013,0-.025,0-.038,0-.012,0-.024,0-.036,0-.013,0-.025,0-.037,0s-.025,0-.037,0-.024,0-.036,0c-.013,0-.025,0-.037,0s-.024,0-.036,0-.024,0-.036,0-.024,0-.036,0-.024,0-.036,0-.024,0-.0359,0-.0238,0-.0356,0c-.0119,0-.0237,0-.0355,0-.0119,0-.0237,0-.0354,0-.0118,0-.0236,0-.0353,0s-.0235,0-.0352,0-.0233,0-.035,0c-.0116,0-.0233,0-.0349,0s-.0232,0-.0348,0c-.0115,0-.0231,0-.0346,0s-.023,0-.0345,0-.023,0-.0344,0c-.0115,0-.0229,0-.0343,0s-.0228,0-.0342,0-.0227,0-.034,0-.0226,0-.0339,0-.0226,0-.0338,0-.0225,0-.0337,0-.0223,0-.0335,0c-.0111,0-.0223,0-.0334,0s-.0222,0-.0333,0-.0221,0-.0332,0-.022,0-.033,0-.022,0-.0329,0-.0219,0-.0328,0-.0218,0-.0327,0-.0217,0-.0325,0-.0217,0-.0325,0-.0215,0-.0323,0c-.0107,0-.0214,0-.0322,0-.0107,0-.0213,0-.032,0s-.0213,0-.0319,0-.0213,0-.0319,0-.0211,0-.0317,0-.021,0-.0315,0-.021,0-.0315,0-.0209,0-.0313,0-.0208,0-.0312,0-.0207,0-.0311,0-.0206,0-.0309,0-.0206,0-.0309,0c-.0102,0-.0205,0-.0307,0s-.0204,0-.0306,0-.0203,0-.0305,0c-.0101,0-.0202,0-.0303,0s-.0202,0-.0302,0c-.0101,0-.0201,0-.0301,0s-.02,0-.03,0-.02,0-.0299,0-.0198,0-.0297,0-.0198,0-.0297,0c-.0098,0-.0196,0-.0295,0-.0098,0-.0196,0-.0293,0s-.0196,0-.0293,0-.0194,0-.0291,0-.0194,0-.0291,0-.0192,0-.0289,0-.0192,0-.0287,0-.0192,0-.0287,0-.019,0-.0285,0-.019,0-.0284,0c-.0095,0-.0189,0-.0283,0s-.0188,0-.0282,0-.0187,0-.0281,0-.0186,0-.0279,0-.0186,0-.0278,0c-.0093,0-.0185,0-.0277,0s-.0184,0-.0276,0-.0183,0-.0275,0c-.0091,0-.0182,0-.0273,0s-.0182,0-.0272,0c-.0091,0-.0181,0-.0271,0s-.018,0-.027,0-.0179,0-.0268,0c-.009,0-.0179,0-.0268,0s-.0178,0-.0266,0-.0177,0-.0265,0-.0176,0-.0264,0-.0175,0-.0263,0c-.0087,0-.0174,0-.0261,0s-.0174,0-.026,0c-.0087,0-.0173,0-.0259,0s-.0173,0-.0258,0c-.0086,0-.0172,0-.0257,0-.0086,0-.0171,0-.0256,0s-.0169,0-.0254,0-.0169,0-.0253,0-.0168,0-.0252,0-.0168,0-.0251,0-.0167,0-.025,0-.0165,0-.0248,0-.0165,0-.0247,0c-.0083,0-.0165,0-.0247,0-.0081,0-.0163,0-.0244,0-.0082,0-.0163,0-.0244,0s-.0162,0-.0243,0c-.008,0-.0161,0-.0241,0s-.0161,0-.024,0-.016,0-.0239,0-.0159,0-.0238,0-.0158,0-.0237,0-.0157,0-.0236,0c-.0078,0-.0156,0-.0234,0s-.0156,0-.0233,0-.0155,0-.0232,0-.0154,0-.0231,0-.0153,0-.023,0c-.0076,0-.0152,0-.0228,0s-.0152,0-.0228,0-.0151,0-.0226,0-.015,0-.0225,0-.0149,0-.0224,0c-.0074,0-.0149,0-.0223,0s-.0148,0-.0221,0c-.0074,0-.0147,0-.0221,0-.0073,0-.0146,0-.0219,0s-.0145,0-.0218,0c-.0072,0-.0145,0-.0217,0s-.0144,0-.0216,0c-.0071,0-.0143,0-.0214,0-.0072,0-.0143,0-.0214,0s-.0141,0-.0212,0-.0141,0-.0211,0-.014,0-.021,0-.014,0-.0209,0-.0139,0-.0208,0-.0138,0-.0206,0-.0137,0-.0206,0-.0136,0-.0204,0-.0136,0-.0203,0c-.0068,0-.0135,0-.0202,0s-.0134,0-.0201,0-.0133,0-.02,0-.0132,0-.0198,0-.0132,0-.0197,0c-.0066,0-.0131,0-.0197,0s-.013,0-.0195,0-.0129,0-.0194,0-.0128,0-.0193,0c-.0064,0-.0128,0-.0191,0s-.0127,0-.0191,0c-.0063,0-.0126,0-.0189,0s-.0126,0-.0188,0-.0125,0-.0188,0-.0124,0-.0186,0c-.0061,0-.0123,0-.0184,0s-.0123,0-.0184,0-.0122,0-.0183,0c-.006,0-.0121,0-.0181,0s-.0121,0-.0181,0-.0119,0-.0179,0-.0119,0-.0178,0-.0118,0-.0177,0c-.0058,0-.0117,0-.0175,0s-.0117,0-.0175,0-.0116,0-.0174,0-.0115,0-.0172,0-.0115,0-.0171,0c-.0057,0-.0114,0-.0171,0-.0056,0-.0113,0-.0169,0s-.0112,0-.0168,0-.0111,0-.0166,0-.0111,0-.0166,0-.011,0-.0165,0-.0109,0-.0163,0-.0108,0-.0162,0-.0108,0-.0162,0-.0107,0-.016,0-.0106,0-.0159,0c-.0052,0-.0105,0-.0158,0-.0052,0-.0104,0-.0156,0s-.0104,0-.0156,0-.0103,0-.0154,0c-.0052,0-.0103,0-.0154,0s-.0102,0-.0152,0-.0101,0-.0151,0c-.0051,0-.0101,0-.015,0-.005,0-.01,0-.0149,0s-.0099,0-.0148,0-.0098,0-.0147,0-.0097,0-.0146,0c-.0048,0-.0096,0-.0144,0s-.0096,0-.0144,0-.0095,0-.0142,0-.0094,0-.0141,0-.0094,0-.014,0-.0093,0-.0139,0-.0092,0-.0138,0-.0091,0-.0137,0c-.0045,0-.0091,0-.0136,0s-.009,0-.0134,0-.0089,0-.0134,0-.0088,0-.0132,0-.0088,0-.0131,0c-.0044,0-.0087,0-.0131,0s-.0086,0-.0129,0-.0085,0-.0128,0-.0085,0-.0127,0-.0084,0-.0126,0-.0083,0-.0124,0c-.0042,0-.0083,0-.0124,0s-.0082,0-.0123,0c-.004,0-.0081,0-.0121,0s-.0081,0-.012,0c-.004,0-.008,0-.012,0s-.0079,0-.0118,0-.0078,0-.0117,0-.0078,0-.0116,0c-.0039,0-.0077,0-.0115,0s-.0076,0-.0114,0-.0075,0-.0113,0-.0074,0-.0111,0c-.0038,0-.0074,0-.0111,0s-.0073,0-.011,0c-.0036,0-.0072,0-.0108,0s-.0072,0-.0108,0-.0071,0-.0106,0-.007,0-.0105,0-.007,0-.0104,0c-.0035,0-.0069,0-.0103,0s-.0069,0-.0102,0c-.0034,0-.0068,0-.0101,0-.0034,0-.0067,0-.01,0s-.0066,0-.0099,0-.0065,0-.0098,0c-.0032,0-.0064,0-.0096,0s-.0064,0-.0096,0-.0063,0-.0094,0c-.0032,0-.0063,0-.0094,0s-.0062,0-.0092,0-.0061,0-.0091,0c-.0031,0-.0061,0-.0091,0s-.0059,0-.0089,0-.0059,0-.0088,0-.0058,0-.0087,0-.0057,0-.0086,0-.0057,0-.0085,0-.0056,0-.0084,0c-.0027,0-.0055,0-.0082,0s-.0055,0-.0082,0-.0054,0-.0081,0-.0053,0-.0079,0c-.0027,0-.0053,0-.0079,0s-.0052,0-.0078,0c-.0025,0-.0051,0-.0076,0s-.005,0-.0075,0-.005,0-.0075,0c-.0024,0-.0049,0-.0073,0s-.0048,0-.0072,0-.0048,0-.0071,0c-.0024,0-.0047,0-.007,0s-.0047,0-.007,0c-.0022,0-.0045,0-.0068,0-.0022,0-.0044,0-.0067,0-.0022,0-.0044,0-.0065,0-.0022,0-.0044,0-.0065,0-.0022,0-.0043,0-.0064,0s-.0042,0-.0063,0-.0041,0-.0062,0c-.002,0-.004,0-.006,0s-.004,0-.006,0-.0039,0-.0059,0c-.0019,0-.0038,0-.0057,0s-.0038,0-.0057,0-.0037,0-.0055,0c-.0019,0-.0037,0-.0055,0s-.0035,0-.0053,0-.0035,0-.0052,0c-.0018,0-.0035,0-.0052,0s-.0033,0-.005,0-.0033,0-.0049,0-.0033,0-.0049,0-.0031,0-.0047,0-.0031,0-.0046,0-.003,0-.0045,0-.003,0-.0044,0-.0029,0-.0043,0-.0028,0-.0042,0-.0028,0-.0041,0c-.0014,0-.0027,0-.004,0s-.0026,0-.0039,0-.0026,0-.0038,0c-.0013,0-.0025,0-.0037,0s-.0024,0-.0036,0-.0023,0-.0035,0c-.0011,0-.0022,0-.0034,0-.0011,0-.0022,0-.0032,0-.0011,0-.0022,0-.0032,0s-.0021,0-.0031,0-.002,0-.003,0-.0019,0-.0028,0c-.001,0-.0019,0-.0028,0s-.0018,0-.0027,0c-.0008,0-.0017,0-.0025,0-.0009,0-.0017,0-.0025,0s-.0016,0-.0024,0c-.0007,0-.0015,0-.0022,0s-.0015,0-.0022,0-.0014,0-.0021,0c-.0006,0-.0013,0-.0019,0s-.0013,0-.0019,0-.0012,0-.0017,0-.0011,0-.0017,0c-.0005,0-.001,0-.0015,0s-.001,0-.0015,0-.0009,0-.0013,0c-.0005,0-.0009,0-.0013,0s-.0008,0-.0011,0c-.0004,0-.0008,0-.0011,0s-.0006,0-.0009,0-.0006,0-.0009,0-.0005,0-.0007,0-.0005,0-.0007,0-.0004,0-.0005,0-.0004,0-.0005,0-.0002,0-.0003,0-.0002,0-.0003,0-.0001,0-.0001,0c-.0001,0-.0001,0-.0001,3Zm14.8405,3c2.208,0,5.605.637,9.921,1.735c4.248,1.08,9.092,2.526,14.115,4.005c4.989,1.47,10.141,2.968,14.887,4.111c4.707,1.133,9.215,1.967,12.876,2.021l.09-5.999c-2.968-.044-6.944-.744-11.562-1.856-4.579-1.102-9.593-2.559-14.596-4.033-4.97-1.463-9.946-2.949-14.331-4.064-4.316-1.098-8.364-1.92-11.4-1.92v6Zm-75.3907-6c1.4383,0,2.6043,1.166,2.6043,2.604h-6c0,1.876,1.5203,3.396,3.3957,3.396v-6ZM157.849,43.6476c-.086,1.4803-1.387,2.5925-2.87,2.4366l.627-5.9672c-1.929-.2028-3.634,1.2529-3.746,3.1816l5.989.349ZM33.9763,100.213c-1.8754,0-3.3957,1.52-3.3957,3.396h6c0,1.438-1.166,2.604-2.6043,2.604v-6Zm190.5227,15.07c0,5.01-4.06,9.071-9.07,9.071v6c8.323,0,15.07-6.747,15.07-15.071h-6Zm-9.07-9.07c5.01,0,9.07,4.061,9.07,9.07h6c0-8.323-6.747-15.07-15.07-15.07v6Zm0-6h-48.875v6h48.875v-6Zm0,24.141h-24.339v6h24.339v-6Zm9.07,15.07c0,5.01-4.06,9.071-9.07,9.071v6c8.323,0,15.07-6.747,15.07-15.071h-6Zm-9.07-9.07c5.01,0,9.07,4.061,9.07,9.07h6c0-8.323-6.747-15.07-15.07-15.07v6Zm0,18.141h-12.268v6h12.268v-6Zm-12.268,0h-12.071v6h12.071v-6Zm9.07,15.07c0,5.01-4.061,9.071-9.07,9.071v6c8.323,0,15.07-6.747,15.07-15.071h-6Zm-9.07-9.07c5.009,0,9.07,4.061,9.07,9.07h6c0-8.323-6.747-15.07-15.07-15.07v6Zm0,18.141h-11.873v6h11.873v-6Zm-11.873,0h-.198v6h.198v-6Zm9.071,15.07c0,5.01-4.061,9.071-9.071,9.071v6c8.323,0,15.071-6.748,15.071-15.071h-6Zm-9.071-9.07c5.01,0,9.071,4.061,9.071,9.07h6c0-8.323-6.748-15.07-15.071-15.07v6Zm0,18.141h-12.247v6h12.247v-6ZM176.02,65.94v37.273h6v-37.273h-6ZM154.979,46.0842c6.268.6588,10.472,2.206,13.506,4.6863c3.028,2.4746,5.239,6.1626,6.956,11.8025l5.74-1.7483c-1.914-6.2845-4.62-11.2027-8.898-14.6997-4.271-3.4912-9.76-5.281-16.677-6.008l-.627,5.9672Zm27.029,19.592c-.16-1.8185-.343-2.8976-.783-4.6917l-5.827,1.4287c.37,1.5107.501,2.2887.633,3.7905l5.977-.5275ZM179.121,202.775c-.012.001-.026.001-.042.001-.016.001-.029.001-.038.001v-6c-.051,0-.103.001-.162.003l.242,5.995Z"
      />
      <circle fill="var(--primary-color)" r="4.55116" transform="translate(70.1876 163.605)" />
    </g>
  </g>
</svg>
