<svg
  id="rocket_launch"
  xmlns="http://www.w3.org/2000/svg"
  xmlns:xlink="http://www.w3.org/1999/xlink"
  viewBox="0 0 250 250"
  shape-rendering="geometricPrecision"
  text-rendering="geometricPrecision"
>
  <style>
    <![CDATA[
    #speed_1 {
      stroke-dasharray: 62, 62, 0, 0;
      animation: speed_1_animation 2000ms linear infinite normal forwards;
    }
    @keyframes speed_1_animation {
      0% {
        stroke-dashoffset: 62;
      }
      15% {
        stroke-dashoffset: 0;
      }
      30% {
        stroke-dashoffset: -62;
      }
      100% {
        stroke-dashoffset: -62;
      }
    }
    #speed_2 {
      stroke-dasharray: 62, 62, 0, 0;
      animation: speed_2_animation 2000ms linear infinite normal forwards;
    }
    @keyframes speed_2_animation {
      0% {
        stroke-dashoffset: 62;
      }
      10% {
        stroke-dashoffset: 62;
      }
      25% {
        stroke-dashoffset: 0;
      }
      40% {
        stroke-dashoffset: -62;
      }
      100% {
        stroke-dashoffset: -62;
      }
    }
    #speed_3 {
      stroke-dasharray: 62, 62, 0, 0;
      animation: speed_3_animation 2000ms linear infinite normal forwards;
    }
    @keyframes speed_3_animation {
      0% {
        stroke-dashoffset: 62;
      }
      20% {
        stroke-dashoffset: 62;
      }
      35% {
        stroke-dashoffset: 0;
      }
      50% {
        stroke-dashoffset: -62;
      }
      100% {
        stroke-dashoffset: -62;
      }
    }
    #speed_4 {
      stroke-dasharray: 62, 62, 0, 0;
      animation: speed_4_animation 2000ms linear infinite normal forwards;
    }
    @keyframes speed_4_animation {
      0% {
        stroke-dashoffset: 62;
      }
      30% {
        stroke-dashoffset: 62;
      }
      45% {
        stroke-dashoffset: 0;
      }
      60% {
        stroke-dashoffset: -62;
      }
      100% {
        stroke-dashoffset: -62;
      }
    }
    #speed_5 {
      stroke-dasharray: 62, 62, 0, 0;
      animation: speed_5_animation 2000ms linear infinite normal forwards;
    }
    @keyframes speed_5_animation {
      0% {
        stroke-dashoffset: 62;
      }
      40% {
        stroke-dashoffset: 62;
      }
      55% {
        stroke-dashoffset: 0;
      }
      70% {
        stroke-dashoffset: -62;
      }
      100% {
        stroke-dashoffset: -62;
      }
    }
    #speed_6 {
      stroke-dasharray: 62, 62, 0, 0;
      animation: speed_6_animation 2000ms linear infinite normal forwards;
    }
    @keyframes speed_6_animation {
      0% {
        stroke-dashoffset: 62;
      }
      50% {
        stroke-dashoffset: 62;
      }
      65% {
        stroke-dashoffset: 0;
      }
      80% {
        stroke-dashoffset: -62;
      }
      100% {
        stroke-dashoffset: -62;
      }
    }
    #speed_7 {
      stroke-dasharray: 62, 62, 0, 0;
      animation: speed_7_animation 2000ms linear infinite normal forwards;
    }
    @keyframes speed_7_animation {
      0% {
        stroke-dashoffset: 62;
      }
      65% {
        stroke-dashoffset: 62;
      }
      80% {
        stroke-dashoffset: 0;
      }
      95% {
        stroke-dashoffset: -62;
      }
      100% {
        stroke-dashoffset: -62;
      }
    }
    #rocket {
      animation: rocket_animation 2000ms linear infinite normal forwards;
    }
    @keyframes rocket_animation {
      0% {
        offset-distance: 0%;
      }
      15.5% {
        offset-distance: 15.260077%;
      }
      27% {
        offset-distance: 27.114153%;
      }
      41% {
        offset-distance: 41.061553%;
      }
      57.5% {
        offset-distance: 57.279607%;
      }
      60.5% {
        offset-distance: 60.291159%;
      }
      76.5% {
        offset-distance: 76.70317%;
      }
      84% {
        offset-distance: 83.774557%;
      }
      95% {
        offset-distance: 100%;
      }
      100% {
        offset-distance: 100%;
      }
    }
    ]]>
  </style>
  <g transform="matrix(1 0 0 1 0 0)">
    <g
      id="rocket"
      style="
        offset-path: path(
          'M124.224215,125.826612C121.238455,124.632312,104.919785,123.756632,107.598845,130.454292C109.568125,135.377502,122.894885,130.979852,120.282115,128.740332C116.955235,125.888722,104.797605,133.342312,107.598845,137.824292C109.881945,141.477262,127.163115,130.986452,122.338865,127.540562C121.376885,126.853432,119.578895,128.548772,118.910955,129.083122C115.000185,132.211732,111.651655,144.543562,113.769085,149.307792C115.504415,153.212292,119.756395,148.519562,120.796305,146.736862C124.331585,140.676382,124.266985,132.467922,124.266985,125.826612'
        );
        offset-rotate: 0deg;
      "
    >
      <g transform="translate(-124.266777,-125.686531)">
        <path
          fill="none"
          stroke="#39dde8"
          stroke-width="6"
          stroke-linejoin="round"
        >
          <animate
            attributeName="d"
            dur="2000ms"
            repeatCount="indefinite"
            values=
            "M85.217 164.516C87.5591 166.858 88.8703 170.039 88.8623 173.359C88.8543 176.68 87.5276 179.867 85.1742 182.221C79.2584 188.136 45.7648 203.968 45.7648 203.968C45.7648 203.968 61.5967 170.475 67.5125 164.559C69.8659 162.205 73.0534 160.879 76.3736 160.871C79.6938 160.863 82.8749 162.174 85.217 164.516Z;
            M85.2171 164.516C87.5591 166.858 88.8704 170.039 88.8624 173.359C88.8544 176.68 85.8535 179.647 83.5 182C77.5843 187.916 45.7649 203.968 45.7649 203.968C45.7649 203.968 62.0842 171.916 68 166C70.3534 163.647 73.0534 160.879 76.3737 160.871C79.6939 160.863 82.875 162.174 85.2171 164.516Z;
            M85.217 164.516C87.5591 166.858 88.8704 170.039 88.8624 173.359C88.8543 176.68 81.3534 183.147 79 185.5C73.0842 191.416 51 199 51 199C51 199 59.5842 173.916 65.5 168C67.8534 165.647 73.0534 160.879 76.3736 160.871C79.6939 160.863 82.8749 162.174 85.217 164.516Z;
            M85.217 164.516C87.5591 166.858 88.8703 170.039 88.8623 173.359C88.8543 176.68 81.3534 181.647 79 184C73.0842 189.916 51 199 51 199C51 199 55.0842 181.916 61 176C63.3534 173.647 73.0533 160.879 76.3736 160.871C79.6938 160.863 82.8749 162.174 85.217 164.516Z;
            M85.217 164.516C87.5591 166.858 88.8703 170.039 88.8623 173.359C88.8543 176.68 81.3534 184.647 79 187C73.0842 192.916 51 199 51 199C51 199 54.5842 179.275 60.5 173.359C62.8534 171.006 73.0533 160.879 76.3736 160.871C79.6938 160.863 82.8749 162.174 85.217 164.516Z;
            M85.2171 164.516C87.5592 166.858 88.8704 170.039 88.8624 173.359C88.8544 176.68 80.3534 184.647 78 187C72.0842 192.916 45.5001 202 45.5001 202C45.5001 202 55.0843 180.916 61.0001 175C63.3535 172.647 73.0534 160.879 76.3737 160.871C79.6939 160.863 82.875 162.174 85.2171 164.516Z;
            M85.217 164.516C87.5591 166.858 88.8704 170.039 88.8624 173.359C88.8543 176.68 81.3534 183.147 79 185.5C73.0842 191.416 51 199 51 199C51 199 59.5842 173.916 65.5 168C67.8534 165.647 73.0534 160.879 76.3736 160.871C79.6939 160.863 82.8749 162.174 85.217 164.516Z;
            M85.217 164.516C87.5591 166.858 88.8703 170.039 88.8623 173.359C88.8543 176.68 81.3534 181.647 79 184C73.0842 189.916 51 199 51 199C51 199 55.0842 181.916 61 176C63.3534 173.647 73.0533 160.879 76.3736 160.871C79.6938 160.863 82.8749 162.174 85.217 164.516Z;
            M85.217 164.516C87.5591 166.858 88.8703 170.039 88.8623 173.359C88.8543 176.68 81.3534 184.647 79 187C73.0842 192.916 51 199 51 199C51 199 54.5842 179.275 60.5 173.359C62.8534 171.006 73.0533 160.879 76.3736 160.871C79.6938 160.863 82.8749 162.174 85.217 164.516Z;
            M85.2171 164.516C87.5592 166.858 88.8704 170.039 88.8624 173.359C88.8544 176.68 80.3534 184.647 78 187C72.0842 192.916 45.5001 202 45.5001 202C45.5001 202 55.0843 180.916 61.0001 175C63.3535 172.647 73.0534 160.879 76.3737 160.871C79.6939 160.863 82.875 162.174 85.2171 164.516Z;
            M85.2171 164.516C87.5591 166.858 88.8704 170.039 88.8624 173.359C88.8544 176.68 85.8535 179.647 83.5 182C77.5843 187.916 45.7649 203.968 45.7649 203.968C45.7649 203.968 62.0842 171.916 68 166C70.3534 163.647 73.0534 160.879 76.3737 160.871C79.6939 160.863 82.875 162.174 85.2171 164.516Z;
            M85.217 164.516C87.5591 166.858 88.8703 170.039 88.8623 173.359C88.8543 176.68 87.5276 179.867 85.1742 182.221C79.2584 188.136 45.7648 203.968 45.7648 203.968C45.7648 203.968 61.5967 170.475 67.5125 164.559C69.8659 162.205 73.0534 160.879 76.3736 160.871C79.6938 160.863 82.8749 162.174 85.217 164.516Z;"
          />
        </path>
        <path
          d="M72.3559,151.211l-2.7854-1.114c-.4457,1.114-.1845,2.387.6641,3.236l2.1213-2.122Zm26.3399,26.34l-2.1213,2.121c.8486.849,2.1212,1.11,3.2355.665l-1.1142-2.786ZM204.055,45.8519h3c0-.7956-.316-1.5587-.879-2.1213-.562-.5626-1.325-.8787-2.121-.8787v3ZM152.875,178.76l2.127,2.115c.592-.595.907-1.411.87-2.249l-2.997.134Zm-26.6,26.761l-2.934.626c.23,1.077,1.031,1.942,2.088,2.252c1.056.311,2.198.018,2.974-.763l-2.128-2.115Zm-7.785-36.493l2.934-.626c-.121-.566-.403-1.085-.812-1.495l-2.122,2.121ZM71.2402,97.1253l.1339-2.997c-.8382-.0375-1.6537.2777-2.2488.8692l2.1149,2.1278ZM44.4786,123.725l-2.1148-2.128c-.781.776-1.074,1.918-.7632,2.974.3107,1.057,1.1752,1.858,2.2521,2.088l.6259-2.934Zm36.493,7.785l2.1214-2.122c-.4096-.409-.929-.691-1.4954-.812l-.626,2.934ZM153.293,55.415l-1.021-2.8207v0l1.021,2.8207ZM85.5259,164.381l-2.1214,2.122v0l2.1214-2.122Zm37.3201-32.984c1.171-1.172,1.171-3.071,0-4.243-1.172-1.171-3.071-1.171-4.243,0l4.243,4.243ZM98.6958,177.551c1.1142,2.786,1.1149,2.785,1.1158,2.785.0007,0,.0019-.001.0032-.001.0026-.001.0062-.003.0108-.005.0091-.003.0223-.009.0394-.016.0341-.013.084-.033.149-.06.13-.053.321-.131.57-.233.498-.206,1.226-.509,2.157-.907c1.862-.794,4.537-1.963,7.807-3.468c6.536-3.008,15.462-7.367,25.018-12.769c18.946-10.708,40.988-25.849,51.307-43.047l-5.145-3.087c-9.436,15.726-30.197,30.219-49.114,40.911-9.376,5.299-18.147,9.583-24.575,12.542-3.213,1.479-5.836,2.625-7.652,3.4-.9083.387-1.6143.681-2.091.878-.2383.098-.4193.172-.5395.221-.0601.024-.105.043-.1343.054-.0146.006-.0254.011-.0322.013-.0034.002-.0058.003-.0072.003-.0007,0-.001.001-.0013.001-.0001,0,.0001,0,1.1143,2.785ZM130.077,63.0343c-17.198,10.319-32.3385,32.3604-43.0472,51.3067-5.4015,9.556-9.7604,18.482-12.769,25.018-1.505,3.27-2.6739,5.945-3.4682,7.807-.3972.931-.7008,1.659-.9061,2.157-.1026.249-.1807.44-.2335.57-.0265.065-.0466.115-.0604.149-.0069.017-.0122.03-.0158.04-.0019.004-.0033.008-.0044.01-.0005.002-.001.003-.0012.003-.0004.001-.0007.002,2.7847,1.116s2.7854,1.115,2.7854,1.115c.0001-.001.0003-.001.0006-.002.0005-.001.0015-.004.0028-.007.0028-.007.0071-.017.013-.032.0118-.029.0299-.074.0543-.134.0489-.121.1227-.302.2211-.54.1966-.477.491-1.183.8784-2.091.7747-1.816,1.9208-4.439,3.3996-7.652c2.9591-6.428,7.243-15.199,12.542-24.575C102.945,98.3761,117.438,77.6151,133.164,68.1793l-3.087-5.145ZM148.58,149.862l1.298,29.032l5.994-.268-1.298-29.032-5.994.268Zm2.167,26.783l-26.599,26.761l4.255,4.23l26.599-26.761-4.255-4.23Zm-21.538,28.25l-7.785-36.493-5.868,1.252l7.785,36.493l5.868-1.252ZM100.406,95.4258L71.3741,94.1283l-.2679,5.9937l29.0318,1.298.268-5.9942Zm-31.2807-.4283L42.3638,121.597l4.2297,4.255L73.355,99.253l-4.2297-4.2555ZM43.8527,126.659l36.493,7.785l1.2519-5.868-36.4931-7.785-1.2518,5.868ZM204.055,45.8519c0-3-.001-3-.001-3-.001,0-.002,0-.002,0-.002,0-.004,0-.006,0-.004,0-.01,0-.018.0001-.015,0-.036.0001-.062.0003-.053.0003-.13.0009-.229.0022-.198.0025-.486.0074-.858.0171-.745.0194-1.829.0579-3.208.1343-2.758.1529-6.7.4576-11.474,1.0654-9.539,1.2143-22.458,3.6453-35.925,8.523l2.043,5.6414c12.936-4.6854,25.398-7.036,34.639-8.2124c4.616-.5876,8.414-.8805,11.049-1.0266c1.317-.0729,2.342-.1092,3.032-.1271.345-.009.606-.0134.778-.0156.086-.0011.15-.0016.19-.0019.02-.0001.035-.0001.044-.0002.004,0,.007,0,.008,0s.001,0,.001,0s0,0,0,0-.001,0-.001-3Zm-51.783,6.7424c-7.373,2.6702-14.93,6.0808-22.195,10.44l3.087,5.145c6.88-4.1279,14.076-7.3814,21.151-9.9436l-2.043-5.6414ZM186.873,119.83c4.359-7.265,7.77-14.822,10.44-22.1944l-5.642-2.0433c-2.562,7.0747-5.815,14.2707-9.943,21.1507l5.145,3.087Zm10.44-22.1944c4.877-13.4672,7.308-26.3862,8.523-35.9251.608-4.7748.912-8.7164,1.065-11.474.077-1.3792.115-2.4632.134-3.2083.01-.3726.015-.6605.018-.8584.001-.0989.001-.1753.002-.2285c0-.0266,0-.0474,0-.0624c0-.0074,0-.0134,0-.0179c0-.0023,0-.0042,0-.0057c0-.0007,0-.0016,0-.002c0-.0007,0-.0014-3-.0014s-3-.0005-3-.0009c0,0,0-.0003,0-.0003s0,.0003,0,.001c0,.0015,0,.0044,0,.0087c0,.0087,0,.0232,0,.0435c0,.0406-.001.1042-.002.1901-.002.1719-.007.4331-.016.7781-.017.6901-.054,1.7154-.127,3.0324-.146,2.6347-.439,6.433-1.026,11.0483-1.177,9.2413-3.527,21.7033-8.213,34.6395l5.642,2.0433ZM151.172,57.5363l41.199,41.199l4.242-4.2427-41.199-41.199-4.242,4.2427ZM78.8503,133.631L97.6096,152.39l4.2424-4.242-18.759-18.76-4.2427,4.243ZM97.6096,152.39l18.7594,18.76l4.243-4.243-18.76-18.759-4.2424,4.242Zm-27.375.943l13.1699,13.17l4.2427-4.243-13.1699-13.17-4.2427,4.243Zm13.1699,13.17l13.17,13.169l4.2425-4.242-13.1698-13.17-4.2427,4.243Zm14.2121-18.362L83.4115,162.253l4.2287,4.256l14.2048-14.112-4.2284-4.256Zm4.2354,4.249l20.994-20.993-4.243-4.243-20.9934,20.994l4.2424,4.242Zm54.417-39.638c-5.289,5.289-13.864,5.289-19.153,0l-4.243,4.243c7.632,7.632,20.006,7.632,27.639,0l-4.243-4.243Zm-19.153,0c-5.289-5.289-5.289-13.8641,0-19.1531l-4.243-4.2427c-7.632,7.6323-7.632,20.0068,0,27.6388l4.243-4.243Zm0-19.1531c5.289-5.2891,13.864-5.2891,19.153,0l4.243-4.2427c-7.633-7.6322-20.007-7.6322-27.639,0l4.243,4.2427Zm19.153,0c5.289,5.289,5.289,13.8641,0,19.1531l4.243,4.243c7.632-7.632,7.632-20.0065,0-27.6388l-4.243,4.2427Z"
        />
      </g>
    </g>
    <path
      id="speed_7"
      d="M159.682,85.7045L115.891,129.496"
      fill="none"
      stroke="#39dde8"
      stroke-width="6"
      stroke-linecap="round"
    />
    <path
      id="speed_6"
      d="M181.74,120.089l-43.791,43.792"
      fill="none"
      stroke="#39dde8"
      stroke-width="6"
      stroke-linecap="round"
    />
    <path
      id="speed_5"
      d="M203.474,53.915L159.682,97.7066"
      fill="none"
      stroke="#39dde8"
      stroke-width="6"
      stroke-linecap="round"
    />
    <path
      id="speed_4"
      d="M163.899,53.915L120.108,97.7066"
      fill="none"
      stroke="#39dde8"
      stroke-width="6"
      stroke-linecap="round"
    />
    <path
      id="speed_3"
      d="M170.387,107.438L126.595,151.23"
      fill="none"
      stroke="#39dde8"
      stroke-width="6"
      stroke-linecap="round"
    />
    <path
      id="speed_2"
      d="M120.108,83.4338L76.3161,127.225"
      fill="none"
      stroke="#39dde8"
      stroke-width="6"
      stroke-linecap="round"
    />
    <path
      id="speed_1"
      d="M124,127.225L80.2087,171.017"
      fill="none"
      stroke="#39dde8"
      stroke-width="6"
      stroke-linecap="round"
    />
  </g>
</svg>
