<svg
  id="eG2Uio0Zewb1"
  xmlns="http://www.w3.org/2000/svg"
  xmlns:xlink="http://www.w3.org/1999/xlink"
  viewBox="0 0 250 250"
  shape-rendering="geometricPrecision"
  text-rendering="geometricPrecision"
>
  <style>
    <![CDATA[
    #eG2Uio0Zewb2_tr {
        animation: eG2Uio0Zewb2_tr__tr 2000ms linear infinite normal forwards
    }
    @keyframes eG2Uio0Zewb2_tr__tr {
        0% {
            transform: translate(125px,125px) rotate(-45.000002deg);
            animation-timing-function: cubic-bezier(0.42,0,0.58,1)
        }
        10% {
            transform: translate(125px,125px) rotate(-90deg);
            animation-timing-function: cubic-bezier(0.42,0,0.58,1)
        }
        25% {
            transform: translate(125px,125px) rotate(-94.975311deg);
            animation-timing-function: cubic-bezier(0.42,0,0.58,1)
        }
        100% {
            transform: translate(125px,125px) rotate(315deg)
        }
    }
    ]]>
  </style>
  <g id="eG2Uio0Zewb2_tr" transform="translate(125,125) rotate(-45.000002)">
    <g transform="translate(-125,-125)">
      <path
        d="M30,112c5.816-45.2758,43.8732-80.5987,90.69-82.7429v-17.2571l13.841,13.7461l13.866,13.7714L157,48.0624L145.277,59.7056L132.9,71.9981L120.69,84.1248v-19.7183C93.5573,66.3943,71.2776,86.1516,65.8321,112"
        fill="none"
        stroke="#0FFFFF"
        stroke-width="6"
        stroke-linejoin="round"
      />
      <path
        d="M110,184.458c-24.827-6.113-43.5809-27.611-45.5162-53.635h19.7473L48.1155,95L12,130.823h17.2826C31.3959,176.28,65.6924,213.367,110,220"
        fill="none"
        stroke="#000"
        stroke-width="6"
        stroke-linecap="square"
        stroke-linejoin="round"
      />
      <path
        d="M184.485,140c-6.047,24.874-27.585,43.684-53.671,45.621v-19.708L95,201.956L130.814,238v-17.248C176.328,218.64,213.448,184.314,220,140"
        fill="none"
        stroke="#0FFFFF"
        stroke-width="6"
        stroke-linejoin="round"
      />
      <path
        d="M141,66.8819c24.479,6.2941,42.931,27.885,44.844,53.9921h-19.624L202.11,157L238,120.874h-17.175C218.731,75.1656,184.843,37.8497,141,31"
        fill="none"
        stroke="#000"
        stroke-width="6"
        stroke-linecap="round"
        stroke-linejoin="round"
      />
      <path
        d="M134.531,25.7461l13.866,13.7714m-3.12,20.1881L132.9,71.9981"
        fill="none"
        stroke="#0FFFFF"
        stroke-width="6"
        stroke-linejoin="round"
      />
    </g>
  </g>
</svg>
